PathFileType	4	(X/Y/Z)	Walk8.trc
DataRate	CameraRate	NumFrames	NumMarkers	Units	OrigDataRate	OrigDataStartFrame	OrigNumFrames
200.000000	200.000000	4	61	mm	200.000000	640	735
Frame#	Times		RCAR		LToe		LMT5		RWRR		LTB4		LMT1		LTB1		LTB3		RWRU		LLFC		RACR1		LUA1		LFA1		LElbow		STRN		LCAR		RFHD		RTH3		LACR1		LASI		LWRU		RTB2		RLFC		C7		LPSI		LWRR		RToe		RMT1		RMT5		LFHD		RPSI		LMFC		RMFC		CLAV		RTH2		RTB1		LTH3		RTB4		RTB3		LTH2		RCAL		LTH1		RASI		LTH4		RFA1		LTB2		RLMAL		RMMAL		LBHD		RBHD		RElbow		RUA1		RTH4		RBack		LMMAL		RTH1		LCAL		T10		LElbowM		LLMAL		RElbowM
			X1	Y1	Z1	X2	Y2	Z2	X3	Y3	Z3	X4	Y4	Z4	X5	Y5	Z5	X6	Y6	Z6	X7	Y7	Z7	X8	Y8	Z8	X9	Y9	Z9	X10	Y10	Z10	X11	Y11	Z11	X12	Y12	Z12	X13	Y13	Z13	X14	Y14	Z14	X15	Y15	Z15	X16	Y16	Z16	X17	Y17	Z17	X18	Y18	Z18	X19	Y19	Z19	X20	Y20	Z20	X21	Y21	Z21	X22	Y22	Z22	X23	Y23	Z23	X24	Y24	Z24	X25	Y25	Z25	X26	Y26	Z26	X27	Y27	Z27	X28	Y28	Z28	X29	Y29	Z29	X30	Y30	Z30	X31	Y31	Z31	X32	Y32	Z32	X33	Y33	Z33	X34	Y34	Z34	X35	Y35	Z35	X36	Y36	Z36	X37	Y37	Z37	X38	Y38	Z38	X39	Y39	Z39	X40	Y40	Z40	X41	Y41	Z41	X42	Y42	Z42	X43	Y43	Z43	X44	Y44	Z44	X45	Y45	Z45	X46	Y46	Z46	X47	Y47	Z47	X48	Y48	Z48	X49	Y49	Z49	X50	Y50	Z50	X51	Y51	Z51	X52	Y52	Z52	X53	Y53	Z53	X54	Y54	Z54	X55	Y55	Z55	X56	Y56	Z56	X57	Y57	Z57	X58	Y58	Z58	X59	Y59	Z59	X60	Y60	Z60	X61	Y61	Z61

640	3.2	964.94	870.02	379.74	1179	41.955	-38.111	1074.9	27.141	-106.2	900.99	899.04	375.19	959.77	285.96	-20.118	1123.6	48.933	-19.75	948.19	369.77	-25.656	975.37	201.52	-15.516	964.27	905.98	313.17	878.2	501.1	-132.52	812.28	1500.9	207.61	782.61	1335.7	-237.1	816.1	1031.3	-283.62	741.26	1166.7	-275.92	931.06	1296.5	20.33	849.14	864.8	-296.14	950.22	1690.9	100.56	681.91	642.3	229.54	796.63	1523.4	-162.88	871.81	1031.3	-129.03	778.23	904.16	-296.11	552.53	301.05	198.17	661.58	513.14	229.22	697.96	1556	33.823	640.89	1071	-40.344	853.56	902.34	-239.89	509.05	31.622	104.01	475.74	59.872	94.653	423.18	51.445	179.71	959.02	1696.4	-4.4375	635.1	1065.5	69.303	886.28	501.81	10.148	672.52	497.89	82.629	865.43	1468.3	10.289	748.31	722.5	237.4	618.86	363.3	147.22	869.47	649.28	-159.06	558.35	300.52	140.97	499.01	241.74	127.21	905.76	749.02	-172.2	314.23	199.08	114.4	827.43	815.99	-188.2	848.18	1037.4	184.61	848.12	732.16	-175.62	901.2	1041.4	340.7	981.89	285.11	-79.798	374.6	181.21	160.13	423.25	184.84	72.335	793.97	1696	-37.888	778.42	1692.2	103.04	801.71	1160.1	331.48	818.97	1322.3	282.97	687.68	725.66	234.46	646.02	1434.7	157.03	981.55	99.93	26.593	694.74	813.08	240.35	898.97	43.413	-24.49	653.89	1198.5	15.933	708.58	1143.6	-190.36	958.25	67.417	-70.456	770.14	1128.1	246.05
641	3.205	967.17	869.92	379.81	1179.2	41.351	-37.812	1074.9	27.195	-106.23	903.51	899.67	375.15	960.91	286.02	-20.353	1123.8	48.81	-19.463	949.76	369.9	-26.039	976.1	201.52	-15.645	967.09	906.1	313.3	880.41	501.45	-133.11	817.51	1501.9	206.58	788.14	1336.6	-238.04	821.87	1032.3	-284.63	746.83	1167.6	-276.95	936.24	1297.3	19.612	855.16	865.78	-297.03	955.42	1691.7	99.55	690.04	641.81	229.74	802.04	1524.2	-163.74	876.9	1032.4	-129.87	784.18	905.07	-296.91	559.64	302.66	198.78	670.87	513.13	229.99	703.14	1556.8	32.83	646.02	1072	-41.261	859.61	903.4	-240.81	510.36	31.328	104.5	478.31	61.247	95.099	425.01	53.79	179.28	964.27	1697.1	-5.4499	640.03	1066.2	68.385	888.52	502.37	9.6057	682.89	497	83.495	870.63	1469.1	9.4132	755.63	722.75	237.42	626.32	363.3	148.99	872.6	649.8	-159.56	565.84	302.06	141.48	505.64	243.99	127.7	909.76	749.21	-172.87	320.69	205.02	114.02	831.96	816.82	-188.9	853.26	1038.1	183.53	851.98	732.83	-176.16	904.71	1042	340.48	983.01	285	-80.071	380.11	185.5	160.13	429.36	188.1	72.607	799.22	1696.8	-38.965	783.62	1693.1	101.94	805.86	1161.2	330.64	823.9	1323.3	282.05	694.95	725.26	234.24	651.32	1435.7	156.35	981.74	99.922	26.634	701.16	812.8	239.61	899.01	43.453	-24.506	659.02	1199.4	15.05	714.12	1144.5	-191.4	958.4	67.464	-70.402	774.73	1129.4	245.01
642	3.21	969.44	869.83	379.88	1179.4	40.786	-37.544	1074.9	27.252	-106.26	906.07	900.3	375.12	962.02	286.07	-20.6	1124	48.712	-19.206	951.3	370.02	-26.438	976.8	201.53	-15.786	969.94	906.22	313.45	882.54	501.78	-133.69	822.68	1502.9	205.57	793.64	1337.4	-238.99	827.64	1033.2	-285.64	752.39	1168.4	-278.01	941.39	1298.1	18.93	861.22	866.72	-297.9	960.59	1692.4	98.568	698.21	641.34	229.96	807.43	1525	-164.58	881.96	1033.4	-130.66	790.18	905.93	-297.71	566.93	304.28	199.35	680.24	513.13	230.74	708.29	1557.5	31.849	651.1	1072.9	-42.211	865.68	904.45	-241.73	511.86	31.066	105.1	481.15	62.696	95.582	427.13	56.307	178.9	969.5	1697.8	-6.4353	644.9	1066.8	67.422	890.72	502.88	9.0719	693.34	496.15	84.336	875.79	1469.9	8.5715	762.94	723.02	237.44	633.76	363.22	150.91	875.61	650.27	-160.08	573.49	303.67	141.84	512.46	246.25	128.15	913.63	749.35	-173.51	327.42	210.88	113.6	836.36	817.59	-189.58	858.12	1038.8	182.59	855.71	733.46	-176.69	908.21	1042.6	340.28	984.08	284.89	-80.365	385.87	189.77	160.09	435.69	191.35	72.847	804.45	1697.6	-40.015	788.8	1694	100.88	809.99	1162.2	329.85	828.76	1324.3	281.19	702.22	724.86	234.05	656.57	1436.6	155.65	981.92	99.927	26.673	707.56	812.52	238.91	899.05	43.486	-24.523	664.1	1200.2	14.157	719.62	1145.3	-192.5	958.53	67.521	-70.344	779.23	1130.6	244.05
643	3.215	971.75	869.74	379.96	1179.5	40.253	-37.308	1074.9	27.306	-106.28	908.66	900.9	375.11	963.11	286.11	-20.86	1124.1	48.634	-18.979	952.81	370.14	-26.85	977.49	201.53	-15.938	972.82	906.35	313.61	884.6	502.1	-134.27	827.79	1503.8	204.6	799.12	1338.2	-239.95	833.44	1034.1	-286.67	757.96	1169.2	-279.11	946.5	1298.8	18.285	867.34	867.64	-298.76	965.73	1693.2	97.619	706.4	640.9	230.18	812.81	1525.7	-165.4	886.99	1034.3	-131.38	796.22	906.74	-298.53	574.4	305.91	199.87	689.68	513.13	231.48	713.42	1558.3	30.88	656.13	1073.8	-43.184	871.79	905.48	-242.65	513.6	30.851	105.78	484.27	64.213	96.103	429.57	58.989	178.57	974.71	1698.4	-7.3921	649.72	1067.4	66.422	892.89	503.34	8.5427	703.84	495.38	85.142	880.93	1470.7	7.7646	770.23	723.32	237.48	641.19	363.07	152.95	878.49	650.68	-160.62	581.3	305.35	142.06	519.48	248.52	128.54	917.35	749.43	-174.13	334.42	216.66	113.15	840.64	818.31	-190.24	862.82	1039.4	181.77	859.32	734.03	-177.25	911.72	1043.2	340.1	985.12	284.76	-80.676	391.9	194.02	160.03	442.25	194.56	73.048	809.65	1698.3	-41.035	793.95	1694.8	99.836	814.09	1163.2	329.11	833.56	1325.3	280.37	709.48	724.48	233.87	661.75	1437.5	154.92	982.07	99.944	26.706	713.94	812.24	238.23	899.07	43.514	-24.542	669.14	1201	13.258	725.09	1146.1	-193.65	958.65	67.584	-70.286	783.63	1131.8	243.17
